<svg xmlns="http://www.w3.org/2000/svg" viewBox="0 0 24 24" id="Figma">
  <path fill="#000000" d="M8 24c2.208 0 4-1.792 4-4v-4H8c-2.208 0-4 1.792-4 4s1.792 4 4 4z" class="color0acf83 svgShape"></path>
  <path fill="#acacac" d="M4 12c0-2.208 1.792-4 4-4h4v8H8c-2.208 0-4-1.792-4-4z" class="colora259ff svgShape"></path>
  <path fill="#888888" d="M4 4c0-2.208 1.792-4 4-4h4v8H8C5.792 8 4 6.208 4 4z" class="colorf24e1e svgShape"></path>
  <path fill="#b0b0b0" d="M12 0h4c2.208 0 4 1.792 4 4s-1.792 4-4 4h-4V0z" class="colorff7262 svgShape"></path>
  <path fill="#8c8c8c" d="M20 12c0 2.208-1.792 4-4 4s-4-1.792-4-4 1.792-4 4-4 4 1.792 4 4z" class="color1abcfe svgShape"></path>
</svg>
